<svg
      width="1058"
      height="761"
      viewBox="0 0 1058 761"
      fill="none"
      xmlns="http://www.w3.org/2000/svg"
    >
      <path
        d="M303.274 582.891C287.534 536.855 281.296 434.07 382.269 391.22C508.484 337.658 531.791 351.974 533.541 270.918C535.29 189.861 448.67 156.798 533.091 30.2979C617.511 -96.2024 778.599 44.3685 780.772 -49.4521C782.946 -143.273 696.018 -100.149 725.896 -170.052C749.798 -225.975 793.272 -229.441 812.021 -224.184"
        stroke="#5C93B1"
        stroke-opacity="0.1"
      />
      <path
        d="M310.482 589.528C294.625 543.386 288.211 440.41 389.41 397.64C515.909 344.177 539.305 358.555 540.935 277.358C542.565 196.161 455.643 162.907 540.113 36.3132C624.583 -90.2803 786.353 50.7865 788.389 -43.1963C790.424 -137.179 703.311 -94.1131 733.167 -164.094C757.053 -220.078 800.647 -223.484 819.459 -218.189"
        stroke="#5C93B1"
        stroke-opacity="0.1"
      />
      <path
        d="M317.518 596.044C301.917 550.081 295.919 447.395 396.739 404.361C522.763 350.568 545.982 364.821 547.905 283.829C549.827 202.836 463.491 169.99 547.982 43.4113C632.472 -83.1677 792.859 56.9333 795.233 -36.8135C797.606 -130.56 710.797 -87.2827 740.754 -157.193C764.72 -213.121 808.096 -216.679 826.788 -211.468"
        stroke="#5C93B1"
        stroke-opacity="0.1"
      />
      <path
        d="M325.518 602.433C309.65 556.307 303.205 453.377 404.367 410.66C530.819 357.263 554.215 371.641 555.818 290.483C557.421 209.324 470.509 176.057 554.918 49.549C639.328 -76.9586 801.107 64.0953 803.112 -29.8433C805.117 -123.782 718.038 -80.7641 747.865 -150.703C771.726 -206.654 815.31 -210.043 834.119 -204.745"
        stroke="#5C93B1"
        stroke-opacity="0.1"
      />
      <path
        d="M332.971 609.241C317.23 563.204 310.993 460.419 411.966 417.569C538.181 364.007 561.488 378.324 563.238 297.267C564.987 216.21 478.367 183.148 562.787 56.6473C647.208 -69.853 808.295 70.7179 810.469 -23.1027C812.643 -116.923 725.715 -73.7997 755.592 -143.703C779.494 -199.626 822.969 -203.092 841.718 -197.835"
        stroke="#5C93B1"
        stroke-opacity="0.1"
      />
      <path
        d="M340.301 615.963C324.572 569.91 318.366 467.079 419.375 424.177C545.637 370.549 568.944 384.865 570.721 303.77C572.497 222.675 485.868 189.625 570.348 63.0387C654.829 -63.5475 815.907 77.0364 818.112 -16.8284C820.316 -110.693 733.355 -67.5214 763.262 -137.467C787.187 -193.423 830.673 -196.905 849.424 -191.652"
        stroke="#5C93B1"
        stroke-opacity="0.1"
      />
      <path
        d="M347.885 622.06C332.017 575.935 325.571 473.004 426.733 430.287C553.186 376.89 576.581 391.269 578.185 310.11C579.788 228.951 492.875 195.684 577.285 69.1763C661.695 -57.3313 823.474 83.7226 825.479 -10.2161C827.484 -104.155 740.404 -61.1368 770.231 -131.075C794.093 -187.026 837.677 -190.416 856.486 -185.117"
        stroke="#5C93B1"
        stroke-opacity="0.1"
      />
      <path
        d="M354.545 629.116C338.943 583.152 332.946 480.467 433.766 437.432C559.79 383.639 583.009 397.893 584.931 316.9C586.854 235.907 500.518 203.062 585.008 76.4826C669.499 -50.0963 829.886 90.0047 832.26 -3.74211C834.633 -97.489 747.823 -54.2113 777.781 -124.121C801.747 -180.05 845.122 -183.608 863.815 -178.396"
        stroke="#5C93B1"
        stroke-opacity="0.1"
      />
      <path
        d="M362.668 635.59C346.939 589.537 340.733 486.706 441.742 443.804C568.004 390.176 591.311 404.492 593.087 323.397C594.864 242.302 508.235 209.252 592.715 82.6659C677.195 -43.9204 838.274 96.6636 840.478 2.79873C842.683 -91.0661 755.722 -47.8943 785.628 -117.84C809.554 -173.796 853.039 -177.278 871.791 -172.025"
        stroke="#5C93B1"
        stroke-opacity="0.1"
      />
      <path
        d="M369.998 642.312C354.257 596.275 348.02 493.49 448.992 450.641C575.208 397.078 598.515 411.395 600.264 330.338C602.014 249.282 515.394 216.219 599.814 89.7185C684.234 -36.7817 845.322 103.789 847.496 9.96856C849.67 -83.8521 762.742 -40.7284 792.619 -110.632C816.521 -166.554 859.996 -170.021 878.745 -164.764"
        stroke="#5C93B1"
        stroke-opacity="0.1"
      />
      <path
        d="M377.328 649.034C361.599 602.981 355.393 500.15 456.402 457.248C582.664 403.62 605.971 417.936 607.747 336.841C609.524 255.746 522.895 222.696 607.375 96.1099C691.855 -30.4763 852.934 110.108 855.139 16.2428C857.343 -77.6221 770.382 -34.4503 800.289 -104.396C824.214 -160.352 867.699 -163.834 886.451 -158.58"
        stroke="#5C93B1"
        stroke-opacity="0.1"
      />
      <path
        d="M384.912 655.132C369.044 609.006 362.598 506.075 463.76 463.358C590.213 409.961 613.608 424.34 615.211 343.181C616.815 262.022 529.902 228.755 614.312 102.248C698.722 -24.26 860.501 116.794 862.506 22.8552C864.51 -71.0834 777.431 -28.0655 807.258 -98.0041C831.12 -153.955 874.703 -157.345 893.513 -152.046"
        stroke="#5C93B1"
        stroke-opacity="0.1"
      />
      <path
        d="M392.364 661.939C376.624 615.903 370.387 513.118 471.359 470.268C597.575 416.706 620.881 431.022 622.631 349.966C624.381 268.909 537.761 235.846 622.181 109.346C706.601 -17.1543 867.689 123.417 869.863 29.5959C872.036 -64.2247 785.108 -21.101 814.986 -91.0043C838.888 -146.927 882.362 -150.393 901.112 -145.136"
        stroke="#5C93B1"
        stroke-opacity="0.1"
      />
      <path
        d="M400.071 668.122C384.33 622.086 378.093 519.301 479.065 476.451C605.281 422.889 628.588 437.205 630.337 356.149C632.087 275.092 545.467 242.029 629.887 115.529C714.307 -10.9713 875.395 129.6 877.569 35.779C879.743 -58.0416 792.815 -14.918 822.692 -84.8213C846.594 -140.744 890.069 -144.21 908.818 -138.953"
        stroke="#5C93B1"
        stroke-opacity="0.1"
      />
      <path
        d="M407.024 675.383C391.295 629.331 385.09 526.5 486.099 483.598C612.361 429.97 635.668 444.285 637.444 363.191C639.22 282.096 552.592 249.046 637.072 122.459C721.552 -4.12676 882.631 136.457 884.835 42.5923C887.04 -51.2725 800.078 -8.10068 829.985 -78.0461C853.911 -134.002 897.396 -137.484 916.148 -132.231"
        stroke="#5C93B1"
        stroke-opacity="0.1"
      />
      <path
        d="M414.731 681.567C399.002 635.514 392.796 532.683 493.805 489.781C620.067 436.153 643.374 450.469 645.151 369.374C646.927 288.279 560.298 255.229 644.778 128.643C729.259 2.05634 890.337 142.64 892.542 48.7754C894.746 -45.0894 807.785 -1.91757 837.692 -71.863C861.617 -127.819 905.102 -131.301 923.854 -126.048"
        stroke="#5C93B1"
        stroke-opacity="0.1"
      />
    </svg>