 <svg
      width="844"
      height="315"
      viewBox="0 0 844 315"
      fill="none"
      xmlns="http://www.w3.org/2000/svg"
    >
      <path
        d="M-75.5223 148.11C-63.5378 101.837 -13.0596 14.1366 92.9777 33.5262C225.524 57.7633 236.906 82.0998 282.186 16.5418C327.465 -49.0162 274.267 -122.935 411.968 -181.118C549.669 -239.302 605.825 -36.9496 658.357 -112.751C710.888 -188.552 616.228 -200.13 678.557 -241.342C728.42 -274.312 765.971 -253.671 778.513 -239.229"
        stroke="#6CA3C0"
        stroke-opacity="0.1"
        stroke-linecap="round"
      />
      <path
        d="M-73.8713 158.012C-61.7937 111.973 -11.1636 24.6542 94.7354 43.6963C227.109 67.499 238.426 91.6727 283.813 26.383C329.199 -38.9067 276.214 -112.289 413.923 -170.453C551.631 -228.617 607.283 -27.5332 659.938 -103.025C712.593 -178.516 618.043 -189.816 680.409 -230.936C730.301 -263.831 767.772 -243.391 780.271 -229.059"
        stroke="#6CA3C0"
        stroke-opacity="0.1"
        stroke-linecap="round"
      />
      <path
        d="M-71.4108 167.072C-59.3966 120.787 -8.8347 33.0534 97.2989 52.4047C229.966 76.5938 241.35 100.93 286.699 35.3439C332.048 -30.2419 278.827 -104.152 416.686 -162.398C554.544 -220.644 610.677 -18.2821 663.289 -94.1155C715.902 -169.949 621.153 -181.492 683.559 -222.735C733.484 -255.729 771.064 -235.1 783.613 -220.66"
        stroke="#6CA3C0"
        stroke-opacity="0.1"
        stroke-linecap="round"
      />
      <path
        d="M-67.784 176.188C-55.7063 130.148 -5.07628 42.83 100.823 61.8722C233.196 85.6749 244.514 109.849 289.9 44.5588C335.286 -20.7309 282.302 -94.1134 420.01 -152.277C557.719 -210.442 613.37 -9.35738 666.025 -84.8487C718.68 -160.34 624.131 -171.64 686.496 -212.76C736.389 -245.656 773.86 -225.215 786.358 -210.883"
        stroke="#6CA3C0"
        stroke-opacity="0.1"
        stroke-linecap="round"
      />
      <path
        d="M-64.9305 186.236C-52.946 139.962 -2.46781 52.2622 103.569 71.6518C236.116 95.8889 247.498 120.225 292.778 54.6674C338.057 -10.8905 284.859 -84.8096 422.56 -142.993C560.261 -201.176 616.417 1.17598 668.949 -74.6251C721.48 -150.426 626.82 -162.004 689.149 -203.217C739.012 -236.186 776.563 -215.545 789.105 -201.104"
        stroke="#6CA3C0"
        stroke-opacity="0.1"
        stroke-linecap="round"
      />
      <path
        d="M-62.3808 195.52C-50.4261 149.258 -0.0315031 61.5918 105.909 81.0197C238.336 105.305 249.716 129.642 294.925 64.1117C340.135 -1.41843 286.96 -75.3467 424.504 -133.467C562.047 -191.588 618.227 10.7547 670.678 -65.0141C723.128 -140.783 628.556 -152.396 690.808 -193.578C740.609 -226.523 778.131 -205.871 790.667 -191.426"
        stroke="#6CA3C0"
        stroke-opacity="0.1"
        stroke-linecap="round"
      />
      <path
        d="M-60.1348 204.041C-48.087 158.014 2.45939 70.7284 108.262 89.8089C240.515 113.66 251.831 137.834 297.147 72.572C342.464 7.31009 289.502 -66.0817 427.053 -124.183C564.604 -182.284 620.28 18.7902 672.854 -56.6689C725.427 -132.128 630.966 -143.463 693.255 -184.552C743.085 -217.423 780.528 -196.972 793.02 -182.637"
        stroke="#6CA3C0"
        stroke-opacity="0.1"
        stroke-linecap="round"
      />
      <path
        d="M-57.2813 214.089C-45.3267 167.827 5.06792 80.1608 111.009 99.5887C243.435 123.874 254.815 148.211 300.025 82.6807C345.234 17.1505 292.06 -56.7777 429.603 -114.898C567.146 -173.019 623.326 29.3237 675.777 -46.4452C728.228 -122.214 633.656 -133.827 695.907 -175.009C745.709 -207.954 783.231 -187.302 795.766 -172.857"
        stroke="#6CA3C0"
        stroke-opacity="0.1"
        stroke-linecap="round"
      />
      <path
        d="M-54.6424 223.598C-42.5945 177.57 7.95188 90.2853 113.755 109.366C246.008 133.216 257.323 157.391 302.64 92.1289C347.956 26.867 294.995 -46.5248 432.546 -104.626C570.097 -162.728 625.772 38.3471 678.346 -37.112C730.92 -112.571 636.459 -123.906 698.747 -164.995C748.578 -197.867 786.02 -177.415 798.512 -163.08"
        stroke="#6CA3C0"
        stroke-opacity="0.1"
        stroke-linecap="round"
      />
      <path
        d="M-52.0927 232.882C-40.0448 186.855 10.5016 99.5698 116.304 118.65C248.558 142.501 259.873 166.675 305.189 101.413C350.506 36.1514 297.544 -37.2404 435.095 -95.3417C572.646 -153.443 628.322 47.6315 680.896 -27.8276C733.47 -103.287 639.008 -114.622 701.297 -155.711C751.128 -188.582 788.57 -168.13 801.062 -153.796"
        stroke="#6CA3C0"
        stroke-opacity="0.1"
        stroke-linecap="round"
      />
      <path
        d="M-50.6202 242.336C-38.6357 196.062 11.8425 108.362 117.88 127.752C250.426 151.989 261.808 176.325 307.088 110.767C352.367 45.2092 299.169 -28.7098 436.87 -86.8931C574.571 -145.076 630.727 57.2757 683.259 -18.5254C735.79 -94.3265 641.13 -105.904 703.459 -147.117C753.322 -180.087 790.873 -159.446 803.415 -145.004"
        stroke="#6CA3C0"
        stroke-opacity="0.1"
        stroke-linecap="round"
      />
      <path
        d="M-47.9812 251.844C-35.9036 205.805 14.7265 118.487 120.625 137.529C252.999 161.331 264.316 185.505 309.703 120.215C355.089 54.9256 302.104 -18.4569 439.813 -76.621C577.522 -134.785 633.173 66.2991 685.828 -9.19223C738.483 -84.6836 643.933 -95.9836 706.299 -137.103C756.192 -169.999 793.662 -149.559 806.161 -135.227"
        stroke="#6CA3C0"
        stroke-opacity="0.1"
        stroke-linecap="round"
      />
      <path
        d="M-45.1278 261.892C-33.1135 215.607 17.4484 127.874 123.582 147.225C256.249 171.414 267.633 195.75 312.982 130.164C358.332 64.5782 305.11 -9.3315 442.969 -67.5775C580.827 -125.823 636.96 76.5381 689.572 0.704736C742.185 -75.1286 647.437 -86.6714 709.842 -127.914C759.767 -160.909 797.347 -140.279 809.896 -125.84"
        stroke="#6CA3C0"
        stroke-opacity="0.1"
        stroke-linecap="round"
      />
      <path
        d="M-42.578 271.177C-30.6233 224.915 19.7712 137.248 125.712 156.676C258.138 180.961 269.519 205.298 314.728 139.768C359.938 74.2381 306.763 0.309778 444.306 -57.8108C581.85 -115.931 638.03 86.4112 690.48 10.6424C742.931 -65.1265 648.359 -76.7395 710.611 -117.921C760.412 -150.867 797.934 -130.214 810.47 -115.77"
        stroke="#6CA3C0"
        stroke-opacity="0.1"
        stroke-linecap="round"
      />
      <path
        d="M-40.0283 280.461C-28.0439 234.188 22.4344 146.488 128.472 165.877C261.018 190.114 272.4 214.451 317.68 148.893C362.959 83.3349 309.761 9.41591 447.462 -48.7673C585.163 -106.951 641.319 95.4014 693.851 19.6003C746.382 -56.2008 651.722 -67.7787 714.051 -108.991C763.914 -141.961 801.465 -121.32 814.007 -106.878"
        stroke="#6CA3C0"
        stroke-opacity="0.1"
        stroke-linecap="round"
      />
    </svg>

    