  <svg
      width="1092"
      height="574"
      viewBox="0 0 1092 574"
      fill="none"
      xmlns="http://www.w3.org/2000/svg"
    >
      <path
        d="M-246.572 179.641C-177.886 151.474 -22.0356 132.625 51.8809 282.56C144.276 469.979 124.506 506.788 247.986 502.083C371.466 497.378 414.291 362.405 614.053 479.516C813.816 596.627 613.847 854.827 756.784 849.607C899.721 844.387 826.601 715.874 935.54 755.036C1022.69 786.365 1031.72 852.283 1025.34 881.326"
        stroke="#5C93B1"
        stroke-opacity="0.1"
      />
      <path
        d="M-255.848 190.905C-187.436 163.126 -32.0629 144.89 42.1391 294.175C134.891 480.781 115.293 517.309 238.428 513.029C361.563 508.749 403.839 374.715 603.445 491.775C803.051 608.835 604.447 864.862 746.986 860.133C889.525 855.404 816.186 727.417 924.96 766.697C1011.98 798.122 1021.2 863.678 1014.93 892.529"
        stroke="#5C93B1"
        stroke-opacity="0.1"
      />
      <path
        d="M-265.696 203.098C-197.011 174.932 -41.1602 156.082 32.7563 306.017C125.152 493.436 105.382 530.246 228.862 525.54C352.341 520.835 395.167 385.863 594.929 502.974C794.691 620.085 594.722 878.285 737.659 873.065C880.596 867.845 807.476 739.332 916.415 778.493C1003.57 809.823 1012.59 875.741 1006.22 904.783"
        stroke="#5C93B1"
        stroke-opacity="0.1"
      />
      <path
        d="M-274.121 214.886C-205.709 187.108 -50.3357 168.871 23.8663 318.156C116.619 504.762 97.0197 541.29 220.155 537.011C343.29 532.731 385.566 398.696 585.172 515.756C784.778 632.817 586.175 888.843 728.713 884.114C871.252 879.386 797.913 751.398 906.687 790.679C993.707 822.103 1002.92 887.66 996.654 916.51"
        stroke="#5C93B1"
        stroke-opacity="0.1"
      />
      <path
        d="M-284.088 227.273C-215.552 199.293 -59.9763 180.728 14.0414 330.312C106.563 517.293 86.8781 553.961 210.155 549.45C333.433 544.939 375.993 410.441 575.61 527.485C775.226 644.529 575.95 901.649 718.653 896.653C861.356 891.657 788.164 763.43 896.988 802.631C984.046 833.991 993.157 899.721 986.829 928.666"
        stroke="#5C93B1"
        stroke-opacity="0.1"
      />
      <path
        d="M-293.531 238.808C-224.846 210.642 -68.9952 191.792 4.92124 341.727C97.3168 529.146 77.5466 565.956 201.026 561.25C324.506 556.545 367.331 421.573 567.094 538.684C766.856 655.795 566.887 913.995 709.824 908.775C852.761 903.555 779.641 775.042 888.58 814.203C975.731 845.533 984.76 911.451 978.38 940.493"
        stroke="#5C93B1"
        stroke-opacity="0.1"
      />
      <path
        d="M-302.808 250.072C-234.37 222.31 -78.9247 204.118 -4.63968 353.454C88.2166 540.124 68.6191 576.653 191.814 572.41C315.01 568.167 357.266 434.12 557.008 551.264C756.75 668.408 558.126 924.422 700.734 919.736C843.343 915.05 769.928 787.016 878.769 826.337C965.841 857.795 975.083 923.366 968.819 952.22"
        stroke="#5C93B1"
        stroke-opacity="0.1"
      />
      <path
        d="M-311.804 262.79C-243.144 234.607 -87.3659 215.713 -13.5325 365.597C78.7593 552.952 58.9876 589.761 182.407 585.019C305.827 580.276 348.672 445.316 548.298 562.344C747.925 679.371 547.977 937.584 690.844 932.321C833.711 927.058 760.667 798.592 869.539 837.712C956.637 869.009 965.641 934.912 959.256 963.951"
        stroke="#5C93B1"
        stroke-opacity="0.1"
      />
      <path
        d="M-321.485 274.712C-252.95 246.731 -97.3737 228.166 -23.356 377.751C69.166 564.731 49.4807 601.4 172.758 596.889C296.035 592.377 338.596 457.88 538.212 574.924C737.829 691.968 538.553 949.088 681.256 944.092C823.958 939.096 750.767 810.869 859.59 850.07C946.649 881.43 955.759 947.16 949.432 976.104"
        stroke="#5C93B1"
        stroke-opacity="0.1"
      />
      <path
        d="M-331.048 286.441C-262.486 258.476 -106.838 239.955 -32.7374 389.591C59.8885 576.635 40.2047 613.304 163.542 608.83C286.88 604.356 329.42 469.847 529.173 586.974C728.925 704.102 529.628 961.209 672.401 956.256C815.174 951.303 741.906 823.029 850.796 862.271C937.908 893.664 947.043 959.409 940.722 988.357"
        stroke="#5C93B1"
        stroke-opacity="0.1"
      />
      <path
        d="M-339.639 298.5C-270.979 270.317 -115.201 251.423 -41.3676 401.307C50.9242 588.662 31.1525 625.471 154.572 620.729C277.992 615.986 320.837 481.026 520.463 598.054C720.09 715.081 520.141 973.294 663.009 968.031C805.876 962.768 732.832 834.302 841.704 873.422C928.802 904.719 937.806 970.622 931.421 999.661"
        stroke="#5C93B1"
        stroke-opacity="0.1"
      />
      <path
        d="M-349.767 309.24C-281.33 281.477 -125.884 263.285 -51.5994 412.621C41.2569 599.291 21.6594 635.82 144.855 631.577C268.05 627.334 310.306 493.287 510.048 610.431C709.79 727.575 511.166 983.589 653.775 978.903C796.383 974.217 722.968 846.184 831.809 885.505C918.881 916.962 928.123 982.534 921.86 1011.39"
        stroke="#5C93B1"
        stroke-opacity="0.1"
      />
      <path
        d="M-358.883 322.151C-290.321 294.186 -134.673 275.665 -60.5725 425.301C32.0534 612.345 12.3696 649.015 135.707 644.54C259.045 640.066 301.585 505.557 501.338 622.684C701.09 739.812 501.793 996.919 644.566 991.966C787.339 987.013 714.071 858.739 822.961 897.981C910.073 929.374 919.208 995.119 912.887 1024.07"
        stroke="#5C93B1"
        stroke-opacity="0.1"
      />
      <path
        d="M-368.445 333.879C-299.909 305.899 -144.333 287.334 -70.3156 436.918C22.2064 623.899 2.52115 660.567 125.798 656.056C249.076 651.545 291.636 517.048 491.253 634.091C690.869 751.135 491.593 1008.26 634.296 1003.26C776.999 998.263 703.807 870.036 812.631 909.237C899.689 940.598 908.8 1006.33 902.472 1035.27"
        stroke="#5C93B1"
        stroke-opacity="0.1"
      />
      <path
        d="M-378.007 345.608C-309.446 317.643 -153.798 299.123 -79.6971 448.758C12.9288 635.803 -6.75506 672.472 116.583 667.998C239.92 663.524 282.461 529.014 482.213 646.142C681.965 763.269 482.669 1020.38 625.441 1015.42C768.214 1010.47 694.946 882.197 803.836 921.438C890.948 952.831 900.083 1018.58 893.762 1047.52"
        stroke="#5C93B1"
        stroke-opacity="0.1"
      />
    </svg>