<svg width="861" height="1148" viewBox="0 0 861 1148" fill="none" xmlns="http://www.w3.org/2000/svg">
<path d="M642.348 1028.91C568.387 1035.31 414.009 1006.81 388.182 841.651C355.897 635.203 385.747 605.967 266.485 573.625C147.223 541.284 66.0868 657.337 -89.6487 485.971C-245.384 314.605 22.4994 127.807 -115.488 90.1532C-253.475 52.4991 -222.017 196.973 -314.315 127.099C-388.154 71.1993 -377.109 5.58909 -362.356 -20.2286" stroke="#5C93B1" stroke-opacity="0.1"/>
<path d="M654.562 1020.93C580.979 1027.03 427.239 998.092 400.945 833.47C368.077 627.692 397.68 598.673 278.874 566.029C160.068 533.384 79.735 648.706 -75.8665 477.435C-231.468 306.163 34.4641 121.033 -102.996 83.0292C-240.456 45.0252 -208.633 189.062 -300.739 119.124C-374.423 63.173 -363.666 -2.14836 -349.076 -27.8152" stroke="#5C93B1" stroke-opacity="0.1"/>
<path d="M667.599 1012.22C593.638 1018.62 439.26 990.124 413.433 824.966C381.148 618.518 410.998 589.282 291.736 556.94C172.474 524.599 91.3378 640.652 -64.3977 469.286C-220.133 297.92 47.7504 111.122 -90.2367 73.4683C-228.224 35.8142 -196.766 180.288 -289.064 110.414C-362.903 54.5144 -351.858 -11.0958 -337.105 -36.9135" stroke="#5C93B1" stroke-opacity="0.1"/>
<path d="M679.156 1003.49C605.573 1009.59 451.833 980.653 425.539 816.031C392.671 610.253 422.274 581.234 303.468 548.589C184.662 515.945 104.329 631.267 -51.2722 459.996C-206.874 288.724 59.0584 103.594 -78.4018 65.5902C-215.862 27.5861 -184.039 171.623 -276.144 101.685C-349.829 45.7339 -339.071 -19.5874 -324.482 -45.2542" stroke="#5C93B1" stroke-opacity="0.1"/>
<path d="M692.365 994.636C618.602 1000.9 464.571 972.213 438.542 807.359C406.007 601.293 435.733 572.166 316.723 539.699C197.712 507.233 116.97 622.912 -38.6465 451.653C-194.263 280.394 72.6373 94.4216 -65.0594 56.6234C-202.756 18.8253 -171.145 163.047 -263.321 93.17C-337.062 37.2686 -326.151 -28.1862 -311.478 -53.9259" stroke="#5C93B1" stroke-opacity="0.1"/>
<path d="M704.819 986.443C630.858 992.839 476.48 964.342 450.652 799.184C418.368 592.737 448.218 563.5 328.956 531.159C209.694 498.817 128.558 614.871 -27.1779 443.505C-182.913 272.138 84.9702 85.3408 -53.0169 47.6867C-191.004 10.0327 -159.546 154.506 -251.844 84.6322C-325.683 28.7329 -314.638 -36.8773 -299.886 -62.695" stroke="#5C93B1" stroke-opacity="0.1"/>
<path d="M717.033 978.459C643.43 984.544 489.634 955.539 463.276 790.844C430.328 584.974 459.93 555.953 341.077 523.255C222.225 490.557 141.908 605.897 -13.7986 434.506C-169.505 263.114 96.4431 78.0021 -41.071 39.9362C-178.585 1.87024 -146.703 145.974 -238.86 75.9772C-312.586 19.9794 -301.847 -45.3639 -287.262 -71.0358" stroke="#5C93B1" stroke-opacity="0.1"/>
<path d="M729.413 969.004C655.472 975.423 501.15 946.99 475.386 781.905C443.182 575.55 473.033 546.315 353.817 514.026C234.602 481.738 153.45 597.774 -2.1807 426.528C-157.811 255.282 110.056 68.4666 -27.8769 30.8744C-165.81 -6.71784 -134.411 137.688 -226.658 67.8731C-300.456 12.021 -289.391 -53.5673 -274.635 -79.3799" stroke="#5C93B1" stroke-opacity="0.1"/>
<path d="M742.21 960.512C668.448 966.775 514.417 938.089 488.388 773.235C455.852 567.169 485.579 538.042 366.568 505.575C247.557 473.109 166.815 588.788 11.1988 417.529C-144.417 246.27 122.483 60.2976 -15.2141 22.4995C-152.911 -15.2987 -121.3 128.923 -213.476 59.0461C-287.217 3.14465 -276.306 -62.3101 -261.633 -88.0499" stroke="#5C93B1" stroke-opacity="0.1"/>
<path d="M754.835 952.17C681.054 958.41 526.967 929.66 500.874 764.733C468.258 558.574 497.984 529.446 378.926 496.926C259.869 464.406 179.142 580.103 23.4214 408.724C-132.3 237.345 134.616 51.3903 -3.13431 13.5304C-140.885 -24.3296 -109.215 119.959 -201.443 50.0236C-275.225 -5.92496 -264.333 -71.4017 -249.664 -97.1465" stroke="#5C93B1" stroke-opacity="0.1"/>
<path d="M766.633 943.222C692.692 949.641 538.37 921.208 512.606 756.124C480.402 549.769 510.253 520.533 391.037 488.245C271.821 455.957 190.67 571.993 35.0391 400.747C-120.592 229.501 147.276 42.685 9.34295 5.09285C-128.59 -32.4993 -97.1912 111.907 -189.438 42.0916C-263.236 -13.7605 -252.172 -79.3488 -237.415 -105.161" stroke="#5C93B1" stroke-opacity="0.1"/>
<path d="M779.504 935.992C705.9 942.077 552.105 913.073 525.747 748.377C492.799 542.507 522.401 513.487 403.548 480.789C284.696 448.091 204.379 563.431 48.6722 392.039C-107.034 220.647 158.914 35.5356 21.3998 -2.53026C-116.114 -40.5962 -84.2325 103.508 -176.389 33.5108C-250.115 -22.487 -239.376 -87.8303 -224.791 -113.502" stroke="#5C93B1" stroke-opacity="0.1"/>
<path d="M792.055 926.388C718.273 932.629 564.186 903.878 538.094 738.951C505.478 532.793 535.203 503.664 416.146 471.144C297.089 438.625 216.362 554.322 60.6412 382.943C-95.0797 211.563 171.836 25.6088 34.0855 -12.2511C-103.665 -50.1111 -71.9953 94.1778 -164.223 24.2421C-238.005 -31.7065 -227.113 -97.1832 -212.444 -122.928" stroke="#5C93B1" stroke-opacity="0.1"/>
<path d="M804.681 918.046C730.919 924.309 576.887 895.622 550.859 730.769C518.323 524.702 548.05 495.575 429.039 463.109C310.028 430.642 229.286 546.321 73.6696 375.063C-81.9465 203.804 184.953 17.8312 47.2567 -19.967C-90.44 -57.7651 -58.8289 86.4564 -151.005 16.5796C-224.746 -39.3218 -213.835 -104.777 -199.162 -130.516" stroke="#5C93B1" stroke-opacity="0.1"/>
<path d="M817.306 909.703C743.524 915.944 589.437 887.193 563.345 722.266C530.729 516.108 560.454 486.979 441.397 454.46C322.34 421.94 241.613 537.637 85.8922 366.258C-69.8287 194.879 197.087 8.92391 59.3365 -28.9361C-78.4141 -66.7961 -46.7443 77.4928 -138.972 7.55715C-212.754 -48.3914 -201.862 -113.868 -187.193 -139.613" stroke="#5C93B1" stroke-opacity="0.1"/>
</svg>
