 <svg
      width="904"
      height="1113"
      viewBox="0 0 904 1113"
      fill="none"
      xmlns="http://www.w3.org/2000/svg"
    >
      <path
        d="M124.412 871.76C129.924 797.728 182.738 649.893 349.901 650.805C558.854 651.945 582.942 686.086 633.936 573.529C684.931 460.972 583.343 362.324 777.406 235.992C971.468 109.66 1113.03 403.965 1172.26 273.774C1231.5 143.582 1083.85 151.535 1167.58 71.5967C1234.57 7.64595 1297.57 29.0394 1320.7 47.73"
        stroke="#5C93B1"
        stroke-opacity="0.1"
      />
      <path
        d="M130.341 885.093C136.077 811.48 189.227 664.345 355.935 664.712C564.321 665.169 588.233 699.031 639.454 586.973C690.675 474.915 589.681 377.177 783.628 250.962C977.576 124.747 1117.8 416.859 1177.3 287.243C1236.79 157.628 1089.52 166.012 1173.28 86.2738C1240.3 22.4834 1303.06 43.5469 1326.06 62.0525"
        stroke="#5C93B1"
        stroke-opacity="0.1"
      />
      <path
        d="M136.845 899.354C142.357 825.322 195.171 677.487 362.333 678.399C571.287 679.539 595.375 713.679 646.369 601.123C697.363 488.566 595.776 389.918 789.838 263.586C983.901 137.254 1125.46 431.559 1184.7 301.368C1243.93 171.176 1096.28 179.129 1180.02 99.1907C1247 35.2399 1310 56.6333 1333.13 75.3239"
        stroke="#5C93B1"
        stroke-opacity="0.1"
      />
      <path
        d="M143.623 912.16C149.359 838.546 202.509 691.412 369.218 691.778C577.603 692.235 601.516 726.097 652.737 614.039C703.957 501.981 602.963 404.243 796.911 278.028C990.858 151.813 1131.09 443.925 1190.58 314.31C1250.07 184.695 1102.8 193.078 1186.57 113.34C1253.58 49.5496 1316.34 70.6131 1339.34 89.1187"
        stroke="#5C93B1"
        stroke-opacity="0.1"
      />
      <path
        d="M150.247 926.613C155.858 852.799 208.804 705.336 375.698 706.001C584.316 706.832 608.316 740.833 659.393 628.545C710.471 516.256 609.19 418.056 803.127 291.825C997.064 165.594 1137.97 458.796 1197.3 328.914C1256.63 199.033 1109.21 207.177 1192.92 127.36C1259.89 63.5055 1322.76 84.7417 1345.83 103.342"
        stroke="#5C93B1"
        stroke-opacity="0.1"
      />
      <path
        d="M156.344 940.217C161.855 866.185 214.669 718.35 381.832 719.262C590.785 720.402 614.873 754.543 665.868 641.986C716.862 529.429 615.275 430.781 809.337 304.449C1003.4 178.117 1144.96 472.422 1204.19 342.231C1263.43 212.04 1115.78 219.992 1199.51 140.054C1266.5 76.1031 1329.5 97.4965 1352.63 116.187"
        stroke="#5C93B1"
        stroke-opacity="0.1"
      />
      <path
        d="M162.272 953.551C168.034 879.921 221.256 732.742 388.047 733.057C596.537 733.45 620.45 767.31 671.731 655.215C723.012 543.12 621.998 445.394 816.081 319.095C1010.16 192.796 1150.37 484.921 1209.93 355.262C1269.5 225.604 1122.15 234.034 1205.98 154.255C1273.05 90.4317 1335.83 111.48 1358.84 129.982"
        stroke="#5C93B1"
        stroke-opacity="0.1"
      />
      <path
        d="M169.626 967.283C175.112 893.267 227.854 745.477 394.934 746.44C603.784 747.645 627.87 781.786 678.804 669.267C729.739 556.748 628.171 458.087 822.098 331.839C1016.03 205.592 1157.61 499.883 1216.77 369.735C1275.93 239.588 1128.36 247.493 1212.03 167.596C1278.96 103.678 1341.94 125.087 1365.06 143.781"
        stroke="#5C93B1"
        stroke-opacity="0.1"
      />
      <path
        d="M175.962 981.273C181.573 907.459 234.519 759.996 401.414 760.661C610.031 761.492 634.031 795.493 685.108 683.205C736.186 570.916 634.905 472.717 828.842 346.485C1022.78 220.254 1163.68 513.456 1223.01 383.574C1282.34 253.693 1134.92 261.837 1218.64 182.02C1285.61 118.166 1348.48 139.402 1371.54 158.002"
        stroke="#5C93B1"
        stroke-opacity="0.1"
      />
      <path
        d="M182.179 995.07C187.816 921.24 240.833 773.732 407.81 774.346C616.532 775.112 640.533 809.113 691.67 696.787C742.808 584.461 641.507 486.274 835.58 359.959C1029.65 233.643 1170.54 526.858 1229.94 396.933C1289.33 267.008 1141.84 275.2 1225.62 195.341C1292.65 131.454 1355.54 152.675 1378.61 171.271"
        stroke="#5C93B1"
        stroke-opacity="0.1"
      />
      <path
        d="M189.125 1008.15C194.611 934.131 247.353 786.34 414.433 787.303C623.282 788.508 647.369 822.649 698.303 710.13C749.237 597.611 647.67 498.95 841.597 372.702C1035.52 246.455 1177.11 540.747 1236.27 410.599C1295.43 280.451 1147.86 288.356 1231.53 208.459C1298.46 144.541 1361.44 165.95 1384.56 184.644"
        stroke="#5C93B1"
        stroke-opacity="0.1"
      />
      <path
        d="M194.204 1022.01C199.966 948.379 253.187 801.199 419.979 801.514C628.468 801.907 652.382 835.768 703.663 723.672C754.944 611.577 653.929 513.851 848.012 387.552C1042.1 261.253 1182.3 553.378 1241.87 423.719C1301.43 294.061 1154.08 302.491 1237.91 222.712C1304.98 158.889 1367.76 179.937 1390.77 198.439"
        stroke="#5C93B1"
        stroke-opacity="0.1"
      />
      <path
        d="M201.677 1035.93C207.314 962.103 260.332 814.595 427.309 815.209C636.03 815.975 660.031 849.976 711.169 737.65C762.307 625.324 661.006 527.137 855.078 400.822C1049.15 274.506 1190.04 567.721 1249.43 437.796C1308.83 307.871 1161.34 316.063 1245.12 236.204C1312.14 172.317 1375.04 193.538 1398.1 212.134"
        stroke="#5C93B1"
        stroke-opacity="0.1"
      />
      <path
        d="M207.894 1049.73C213.505 975.916 266.451 828.453 433.345 829.118C641.963 829.949 665.962 863.95 717.04 751.662C768.117 639.373 666.836 541.174 860.774 414.943C1054.71 288.711 1195.62 581.913 1254.94 452.031C1314.27 322.15 1166.85 330.294 1250.57 250.477C1317.54 186.623 1380.41 207.859 1403.47 226.459"
        stroke="#5C93B1"
        stroke-opacity="0.1"
      />
      <path
        d="M214.11 1063.53C219.747 989.697 272.765 842.189 439.742 842.803C648.463 843.569 672.464 877.57 723.602 765.244C774.739 652.918 673.439 554.731 867.511 428.416C1061.58 302.1 1202.47 595.315 1261.87 465.39C1321.26 335.465 1173.77 343.657 1257.55 263.798C1324.58 199.911 1387.47 221.132 1410.54 239.728"
        stroke="#5C93B1"
        stroke-opacity="0.1"
      />
    </svg>